# 3ds Max Wavefront OBJ Exporter v0.97b - (c)2007 guruware
# File Created: 28.05.2024 09:21:51

#
# object Box001
#

v  -42.3154 0.0000 35.8745
v  -42.3154 0.0000 -24.0695
v  19.5418 0.0000 -24.0695
v  19.5418 0.0000 35.8745
v  5.3236 0.0000 35.8745
v  5.2848 0.9590 35.8745
v  19.5418 0.9590 35.8745
v  19.5418 0.9590 -24.0695
v  -42.3154 0.9590 -24.0695
v  -42.3154 0.9590 35.8745
v  5.3236 4.8164 61.5191
v  19.5418 4.8164 61.5191
v  19.5418 5.7754 61.5191
v  5.2848 5.7754 61.5191
v  19.5418 4.8164 45.8014
v  5.3236 4.8164 45.8014
v  5.2848 5.7754 45.8014
v  19.5418 5.7754 45.8014
v  19.5418 4.8164 53.9557
v  5.3236 4.8164 53.9557
v  19.5418 5.7754 53.9557
v  5.2848 5.7754 53.9557
v  -43.4427 12.7741 53.9557
v  -43.4039 11.8151 53.9557
v  -43.4039 11.8151 61.5191
v  -43.4427 12.7741 61.5191
v  -6.8376 10.0294 61.5191
v  -6.7987 9.0705 61.5191
v  -6.7987 9.0705 53.9557
v  -6.8376 10.0294 53.9557
v  -17.5441 8.6354 53.9557
v  -17.5830 9.5944 53.9557
v  -17.5441 8.6354 61.5191
v  -17.5830 9.5944 61.5191
v  -27.5810 12.4557 53.9557
v  -27.6199 13.4147 53.9557
v  -27.5810 12.4557 61.5191
v  -27.6199 13.4147 61.5191
v  -35.8467 12.1211 53.9557
v  -35.8855 13.0800 53.9557
v  -35.8467 12.1211 61.5191
v  -35.8855 13.0800 61.5191
v  -35.6437 27.9802 -23.9847
v  -35.6049 27.0212 -23.9847
v  -43.1621 26.7153 -23.9847
v  -43.2009 27.6742 -23.9847
v  -43.2009 27.6742 17.2594
v  -43.1621 26.7153 17.2594
v  -35.6049 27.0212 17.2594
v  -35.6437 27.9802 17.2594
v  -35.6049 27.0212 5.6970
v  1.6505 28.0347 -23.9847
v  1.6117 28.9937 -23.9847
v  1.6117 28.9937 5.6741
v  -35.6437 27.9802 5.6741
v  1.6505 28.0347 5.6970
# 56 vertices

vn 0.0000 -1.0000 -0.0000
vn 0.0000 1.0000 -0.0000
vn 0.0000 0.0000 1.0000
vn 1.0000 0.0000 -0.0000
vn 0.0000 0.0000 -1.0000
vn -1.0000 0.0000 -0.0000
vn 0.0000 -0.8997 0.4365
vn 0.0000 0.8997 -0.4365
vn -0.9990 -0.0404 0.0196
vn -0.9992 -0.0405 -0.0000
vn -0.3311 -0.9436 -0.0000
vn 0.3311 0.9436 -0.0000
vn 0.0405 -0.9992 -0.0000
vn -0.0405 0.9992 -0.0000
vn -0.3557 -0.9346 -0.0000
vn 0.3557 0.9346 -0.0000
vn -0.9989 -0.0404 -0.0230
vn 0.9989 0.0404 0.0230
vn 0.0375 -0.9260 -0.3757
vn -0.0375 0.9260 0.3757
vn 0.9992 0.0405 -0.0000
vn -0.0272 0.9996 -0.0000
vn 0.0272 -0.9996 -0.0000
vn -0.0006 0.0238 0.9997
# 24 vertex normals

vt 61.8572 0.0000 0.0000
vt 61.8572 59.9439 0.0000
vt 0.0000 59.9439 0.0000
vt 0.0000 0.0000 0.0000
vt 14.2182 0.0000 0.0000
vt 47.6002 0.0000 0.0000
vt 47.6390 0.0000 0.0000
vt 61.8572 0.9590 0.0000
vt 47.6002 0.9590 0.0000
vt 59.9439 0.0000 0.0000
vt 59.9439 0.9590 0.0000
vt 0.0000 0.9590 0.0000
# 12 texture coords

o Box001
g Box001
f 1/1/1 2/2/1 3/3/1 
f 3/3/1 4/4/1 5/5/1 
f 6/6/2 7/1/2 8/2/2 
f 8/2/2 9/3/2 10/4/2 
f 11/7/3 12/1/3 13/8/3 
f 13/8/3 14/9/3 11/7/3 
f 4/4/4 3/10/4 8/11/4 
f 8/11/4 7/12/4 4/4/4 
f 3/4/5 2/1/5 9/8/5 
f 9/8/5 8/12/5 3/4/5 
f 2/4/6 1/10/6 10/11/6 
f 10/11/6 9/12/6 2/4/6 
f 6/9/3 10/12/3 1/4/3 
f 10/4/2 6/6/2 8/2/2 
f 1/4/3 5/7/3 6/9/3 
f 3/3/1 5/5/1 1/1/1 
f 5/7/7 4/1/7 15/1/7 
f 15/1/7 16/7/7 5/7/7 
f 7/8/8 6/9/8 17/9/8 
f 17/9/8 18/8/8 7/8/8 
f 4/1/4 7/8/4 18/8/4 
f 18/8/4 15/1/4 4/1/4 
f 6/9/9 5/7/9 16/7/9 
f 16/7/9 17/9/9 6/9/9 
f 16/7/1 15/1/1 19/1/1 
f 19/1/1 20/7/1 16/7/1 
f 15/1/4 18/8/4 21/8/4 
f 21/8/4 19/1/4 15/1/4 
f 18/8/2 17/9/2 22/9/2 
f 22/9/2 21/8/2 18/8/2 
f 17/9/10 16/7/10 20/7/10 
f 20/7/10 22/9/10 17/9/10 
f 20/7/1 19/1/1 12/1/1 
f 12/1/1 11/7/1 20/7/1 
f 19/1/4 21/8/4 13/8/4 
f 13/8/4 12/1/4 19/1/4 
f 21/8/2 22/9/2 14/9/2 
f 14/9/2 13/8/2 21/8/2 
f 23/9/10 24/7/10 25/7/10 
f 25/7/10 26/9/10 23/9/10 
f 11/7/3 14/9/3 27/9/3 
f 27/9/3 28/7/3 11/7/3 
f 22/9/5 20/7/5 29/7/5 
f 29/7/5 30/9/5 22/9/5 
f 20/7/11 11/7/11 28/7/11 
f 28/7/11 29/7/11 20/7/11 
f 14/9/12 22/9/12 30/9/12 
f 30/9/12 27/9/12 14/9/12 
f 30/9/5 29/7/5 31/7/5 
f 31/7/5 32/9/5 30/9/5 
f 29/7/13 28/7/13 33/7/13 
f 33/7/13 31/7/13 29/7/13 
f 28/7/3 27/9/3 34/9/3 
f 34/9/3 33/7/3 28/7/3 
f 27/9/14 30/9/14 32/9/14 
f 32/9/14 34/9/14 27/9/14 
f 32/9/5 31/7/5 35/7/5 
f 35/7/5 36/9/5 32/9/5 
f 31/7/15 33/7/15 37/7/15 
f 37/7/15 35/7/15 31/7/15 
f 33/7/3 34/9/3 38/9/3 
f 38/9/3 37/7/3 33/7/3 
f 34/9/16 32/9/16 36/9/16 
f 36/9/16 38/9/16 34/9/16 
f 36/9/5 35/7/5 39/7/5 
f 39/7/5 40/9/5 36/9/5 
f 35/7/13 37/7/13 41/7/13 
f 41/7/13 39/7/13 35/7/13 
f 37/7/3 38/9/3 42/9/3 
f 42/9/3 41/7/3 37/7/3 
f 38/9/14 36/9/14 40/9/14 
f 40/9/14 42/9/14 38/9/14 
f 43/9/5 44/7/5 45/7/5 
f 45/7/5 46/9/5 43/9/5 
f 39/7/13 41/7/13 25/7/13 
f 25/7/13 24/7/13 39/7/13 
f 41/7/3 42/9/3 26/9/3 
f 26/9/3 25/7/3 41/7/3 
f 42/9/14 40/9/14 23/9/14 
f 23/9/14 26/9/14 42/9/14 
f 24/7/17 23/9/17 47/9/17 
f 47/9/17 48/7/17 24/7/17 
f 40/9/18 39/7/18 49/7/18 
f 49/7/18 50/9/18 40/9/18 
f 39/7/19 24/7/19 48/7/19 
f 48/7/19 49/7/19 39/7/19 
f 23/9/20 40/9/20 50/9/20 
f 50/9/20 47/9/20 23/9/20 
f 50/9/21 49/7/21 51/7/21 
f 52/7/21 53/9/21 54/9/21 
f 49/7/13 48/7/13 45/7/13 
f 45/7/13 44/7/13 51/7/13 
f 48/7/10 47/9/10 46/9/10 
f 46/9/10 45/7/10 48/7/10 
f 47/9/14 55/9/14 43/9/14 
f 43/9/14 46/9/14 47/9/14 
f 52/7/21 54/9/21 56/7/21 
f 47/9/14 50/9/14 55/9/14 
f 51/7/21 55/9/21 50/9/21 
f 45/7/13 51/7/13 49/7/13 
f 44/7/5 43/9/5 53/9/5 
f 53/9/5 52/7/5 44/7/5 
f 43/9/22 55/9/22 54/9/22 
f 54/9/22 53/9/22 43/9/22 
f 51/7/23 44/7/23 52/7/23 
f 52/7/23 56/7/23 51/7/23 
f 55/9/24 51/7/24 56/7/24 
f 56/7/24 54/9/24 55/9/24 
# 108 faces

