# 3ds Max Wavefront OBJ Exporter v0.97b - (c)2007 guruware
# File Created: 01.06.2024 22:44:36

#
# object Hero
#

v  0.6769 3.2344 -0.3876
v  -0.6776 3.2344 -0.3704
v  -0.6803 3.6275 -0.3498
v  0.6742 3.6275 -0.3671
v  0.6883 3.2587 0.5084
v  0.6856 3.6518 0.5290
v  -0.6689 3.6518 0.5462
v  -0.6663 3.2587 0.5257
v  0.8671 6.2245 -0.5628
v  -0.7026 6.2245 -0.5428
v  -0.6777 6.3042 0.8832
v  0.7453 6.3042 0.8651
v  0.0809 0.0199 -0.3428
v  0.6773 0.0199 -0.3504
v  0.6887 0.0443 0.5457
v  0.1295 0.0443 0.5528
v  -0.6796 4.0885 -0.2986
v  0.6749 4.0885 -0.3159
v  0.6863 4.1128 0.5802
v  -0.6682 4.1128 0.5974
v  -0.6677 4.7030 -0.3301
v  -0.1694 4.7030 -0.3364
v  0.3101 4.7030 -0.3425
v  -3.0452 4.0885 -0.2686
v  -3.0341 4.1128 0.6051
v  -3.0342 4.7274 0.5962
v  -3.0456 4.7030 -0.2999
v  0.6982 4.7274 0.5488
v  0.2787 4.7274 0.5541
v  -0.1560 4.7274 0.5596
v  3.3444 4.1128 0.5465
v  3.3330 4.0885 -0.3496
v  3.3326 4.7030 -0.3809
v  3.3440 4.7274 0.5152
v  0.6868 4.7030 -0.3473
v  1.1692 4.7274 0.5428
v  1.1578 4.7030 -0.3533
v  1.1582 4.0885 -0.3220
v  1.1696 4.1128 0.5741
v  2.1248 4.0885 -0.3343
v  2.1361 4.1128 0.5618
v  2.1244 4.7030 -0.3656
v  2.1358 4.7274 0.5305
v  -0.6563 4.7274 0.5660
v  -1.1124 4.7030 -0.3245
v  -1.1011 4.7274 0.5716
v  -1.1007 4.1128 0.6029
v  -1.1120 4.0885 -0.2932
v  -1.9782 4.1128 0.6141
v  -1.9896 4.0885 -0.2820
v  -1.9786 4.7274 0.5828
v  -1.9900 4.7030 -0.3133
v  -0.1697 4.8303 -0.3549
v  0.3099 4.8303 -0.3610
v  -0.1562 4.8546 0.5411
v  0.2785 4.8546 0.5356
v  -0.7028 5.0178 -0.5547
v  0.8670 5.0178 -0.5746
v  -0.6779 5.0974 0.8713
v  0.7451 5.0974 0.8532
v  0.6766 2.5661 -0.4057
v  0.0802 2.5661 -0.3981
v  -0.6665 2.5904 0.5076
v  0.1288 2.5904 0.4975
v  0.6880 2.5904 0.4904
v  -0.6779 2.5661 -0.3885
v  -0.1188 0.0397 0.5475
v  -0.6659 0.0397 0.5545
v  -0.6773 0.0153 -0.3416
v  -0.1194 2.5904 0.5006
v  -0.1610 0.0153 -0.3481
v  -0.1616 2.5661 -0.3950
v  0.6761 2.0924 -0.4464
v  0.0797 2.0924 -0.4388
v  0.6875 2.1168 0.4496
v  0.1283 2.1168 0.4567
v  0.6773 1.2742 -0.3562
v  0.0808 1.2742 -0.3486
v  0.6886 1.2985 0.5398
v  0.1295 1.2985 0.5469
v  -0.6783 2.0578 -0.4242
v  -0.6669 2.0821 0.4719
v  -0.1198 2.0821 0.4650
v  -0.1620 2.0578 -0.4307
v  -0.6661 1.3169 0.5352
v  -0.1190 1.3169 0.5282
v  -0.6775 1.2926 -0.3609
v  -0.1612 1.2926 -0.3675
# 88 vertices

vn -0.0128 0.0573 -1.0082
vn 0.0128 -0.0573 1.0082
vn 0.9999 0.0067 -0.0137
vn -0.0027 0.9856 -0.2094
vn -0.9999 -0.0067 0.0137
vn 0.0018 -0.9896 0.1440
vn -0.0128 0.0824 -1.0093
vn 0.0128 -0.0824 1.0093
vn 0.9999 -0.0000 -0.0127
vn -0.9999 -0.0000 0.0127
vn -0.0128 0.0132 -1.0046
vn -0.9999 0.0000 0.0127
vn 0.0128 -0.0132 1.0046
vn -0.0018 0.9896 -0.1440
vn 0.0012 -0.9896 0.1440
vn 0.0018 -0.9895 0.1456
vn 0.0027 -0.0288 1.0062
vn -0.0127 -0.0271 -0.9996
vn -0.9998 0.0001 0.0175
vn 0.0127 0.0271 0.9996
vn 0.9962 0.0027 0.0872
vn -0.0111 -0.3934 -0.8742
vn -0.4360 -0.8897 0.1371
vn -0.3760 -0.9120 0.2023
vn 0.0116 -0.5239 0.9128
vn 0.3602 -0.9223 0.1657
vn 0.4406 -0.8738 0.2705
vn -0.0128 0.0392 -1.0070
vn -0.9997 -0.0004 0.0228
vn 0.0128 -0.0392 1.0070
vn 0.9817 -0.0079 0.1917
vn -0.0128 0.0465 -1.0075
vn 0.0128 -0.0465 1.0075
vn 0.9999 0.0000 -0.0127
vn -0.0128 0.0717 -1.0089
vn 0.0128 -0.0717 1.0089
vn -0.9950 -0.0063 0.1010
vn -0.0127 -0.0121 -1.0016
vn 0.0127 0.0121 1.0016
vn -0.9950 0.0011 0.0999
vn -0.0128 0.0330 -1.0065
vn 0.0128 -0.0330 1.0065
vn -0.9950 -0.0029 0.1005
vn 0.0128 -0.0650 1.0086
vn -0.0128 0.0650 -1.0086
vn 0.9964 0.0047 -0.0858
vn 0.0127 0.0004 1.0031
vn -0.0127 -0.0004 -1.0031
vn 0.9964 -0.0000 -0.0851
vn 0.0128 -0.0285 1.0061
vn -0.0128 0.0285 -1.0061
vn 0.9964 0.0021 -0.0854
# 52 vertex normals

vt 0.9931 -0.0000 0.0000
vt 0.9931 0.9902 0.0000
vt -0.0000 0.9902 0.0000
vt -0.0000 -0.0000 0.0000
vt 0.9931 0.3112 0.0000
vt -0.0000 0.3112 0.0000
vt 0.2121 -0.0000 0.0000
vt 0.3857 -0.0000 0.0000
vt 0.3955 0.3112 0.0000
vt 0.2362 0.3112 0.0000
vt 0.4268 -0.0000 0.0000
vt 0.7625 -0.0000 0.0000
vt 0.7625 0.3112 0.0000
vt 0.4477 0.3112 0.0000
vt 0.3080 0.3112 0.0000
vt 0.2906 -0.0000 0.0000
# 16 texture coords

o Hero
g Hero
f 1/1/1 2/2/1 3/3/1 
f 3/3/1 4/4/1 1/1/1 
f 5/4/2 6/1/2 7/2/2 
f 7/2/2 8/3/2 5/4/2 
f 1/4/3 4/1/3 6/5/3 
f 6/5/3 5/6/3 1/4/3 
f 9/7/4 10/8/4 11/9/4 
f 11/9/4 12/10/4 9/7/4 
f 3/4/5 2/1/5 8/5/5 
f 8/5/5 7/6/5 3/4/5 
f 13/11/6 14/12/6 15/13/6 
f 15/13/6 16/14/6 13/11/6 
f 4/4/7 3/12/7 17/12/7 
f 17/12/7 18/4/7 4/4/7 
f 7/13/8 6/6/8 19/6/8 
f 19/6/8 20/13/8 7/13/8 
f 6/6/9 4/4/9 18/4/9 
f 18/4/9 19/6/9 6/6/9 
f 3/12/10 7/13/10 20/13/10 
f 20/13/10 17/12/10 3/12/10 
f 18/4/11 17/12/11 21/12/11 
f 22/8/11 23/7/11 18/4/11 
f 24/12/10 25/13/10 26/13/10 
f 26/13/12 27/12/12 24/12/12 
f 20/13/13 19/6/13 28/6/13 
f 29/10/13 30/9/13 20/13/13 
f 31/6/9 32/4/9 33/4/9 
f 33/4/9 34/6/9 31/6/9 
f 35/4/14 28/6/14 36/6/14 
f 36/6/14 37/4/14 35/4/14 
f 19/6/6 18/4/6 38/4/6 
f 38/4/6 39/6/6 19/6/6 
f 18/4/11 35/4/11 37/4/11 
f 37/4/11 38/4/11 18/4/11 
f 28/6/13 19/6/13 39/6/13 
f 39/6/13 36/6/13 28/6/13 
f 39/6/6 38/4/6 40/4/6 
f 40/4/6 41/6/6 39/6/6 
f 38/4/11 37/4/11 42/4/11 
f 42/4/11 40/4/11 38/4/11 
f 37/4/14 36/6/14 43/6/14 
f 43/6/14 42/4/14 37/4/14 
f 36/6/13 39/6/13 41/6/13 
f 41/6/13 43/6/13 36/6/13 
f 41/6/6 40/4/6 32/4/6 
f 32/4/6 31/6/6 41/6/6 
f 40/4/11 42/4/11 33/4/11 
f 33/4/11 32/4/11 40/4/11 
f 42/4/14 43/6/14 34/6/14 
f 34/6/14 33/4/14 42/4/14 
f 43/6/13 41/6/13 31/6/13 
f 31/6/13 34/6/13 43/6/13 
f 44/13/14 21/12/14 45/12/14 
f 45/12/14 46/13/14 44/13/14 
f 17/12/6 20/13/6 47/13/6 
f 47/13/6 48/12/6 17/12/6 
f 21/12/11 17/12/11 48/12/11 
f 48/12/11 45/12/11 21/12/11 
f 20/13/13 44/13/13 46/13/13 
f 46/13/13 47/13/13 20/13/13 
f 48/12/6 47/13/6 49/13/6 
f 49/13/6 50/12/6 48/12/6 
f 47/13/13 46/13/13 51/13/13 
f 51/13/13 49/13/13 47/13/13 
f 46/13/14 45/12/14 52/12/14 
f 52/12/14 51/13/14 46/13/14 
f 45/12/11 48/12/11 50/12/11 
f 50/12/11 52/12/11 45/12/11 
f 50/12/15 49/13/15 25/13/15 
f 25/13/16 24/12/16 50/12/16 
f 49/13/13 51/13/13 26/13/13 
f 26/13/17 25/13/17 49/13/17 
f 51/13/14 52/12/14 27/12/14 
f 27/12/14 26/13/14 51/13/14 
f 52/12/11 50/12/11 24/12/11 
f 24/12/11 27/12/11 52/12/11 
f 22/8/14 21/12/14 44/13/14 
f 21/12/11 22/8/11 18/4/11 
f 44/13/14 30/9/14 22/8/14 
f 30/9/13 44/13/13 20/13/13 
f 29/10/14 28/6/14 35/4/14 
f 28/6/13 29/10/13 20/13/13 
f 35/4/14 23/7/14 29/10/14 
f 23/7/11 35/4/11 18/4/11 
f 23/7/18 22/8/18 53/8/18 
f 53/8/18 54/7/18 23/7/18 
f 22/8/19 30/9/19 55/9/19 
f 55/9/19 53/8/19 22/8/19 
f 30/9/20 29/10/20 56/10/20 
f 56/10/20 55/9/20 30/9/20 
f 29/10/21 23/7/21 54/7/21 
f 54/7/21 56/10/21 29/10/21 
f 54/7/22 53/8/22 57/8/22 
f 57/8/22 58/7/22 54/7/22 
f 53/8/23 55/9/23 59/9/23 
f 59/9/24 57/8/24 53/8/24 
f 55/9/25 56/10/25 60/10/25 
f 60/10/25 59/9/25 55/9/25 
f 56/10/26 54/7/26 58/7/26 
f 58/7/27 60/10/27 56/10/27 
f 58/7/28 57/8/28 10/8/28 
f 10/8/28 9/7/28 58/7/28 
f 57/8/29 59/9/29 11/9/29 
f 11/9/29 10/8/29 57/8/29 
f 59/9/30 60/10/30 12/10/30 
f 12/10/30 11/9/30 59/9/30 
f 60/10/31 58/7/31 9/7/31 
f 9/7/31 12/10/31 60/10/31 
f 2/4/32 1/12/32 61/12/32 
f 61/12/32 62/11/32 2/4/32 
f 5/13/33 8/6/33 63/6/33 
f 64/14/33 65/13/33 5/13/33 
f 1/12/34 5/13/34 65/13/34 
f 65/13/34 61/12/34 1/12/34 
f 8/6/10 2/4/10 66/4/10 
f 66/4/10 63/6/10 8/6/10 
f 67/15/6 68/6/6 69/4/6 
f 63/6/33 70/15/33 5/13/33 
f 69/4/6 71/16/6 67/15/6 
f 72/16/32 66/4/32 2/4/32 
f 64/14/6 70/15/6 72/16/6 
f 70/15/33 64/14/33 5/13/33 
f 72/16/6 62/11/6 64/14/6 
f 62/11/32 72/16/32 2/4/32 
f 62/11/35 61/12/35 73/12/35 
f 73/12/35 74/11/35 62/11/35 
f 61/12/34 65/13/34 75/13/34 
f 75/13/34 73/12/34 61/12/34 
f 65/13/36 64/14/36 76/14/36 
f 76/14/36 75/13/36 65/13/36 
f 64/14/37 62/11/37 74/11/37 
f 74/11/37 76/14/37 64/14/37 
f 74/11/38 73/12/38 77/12/38 
f 77/12/38 78/11/38 74/11/38 
f 73/12/34 75/13/34 79/13/34 
f 79/13/34 77/12/34 73/12/34 
f 75/13/39 76/14/39 80/14/39 
f 80/14/39 79/13/39 75/13/39 
f 76/14/40 74/11/40 78/11/40 
f 78/11/40 80/14/40 76/14/40 
f 78/11/41 77/12/41 14/12/41 
f 14/12/41 13/11/41 78/11/41 
f 77/12/9 79/13/9 15/13/9 
f 15/13/9 14/12/9 77/12/9 
f 79/13/42 80/14/42 16/14/42 
f 16/14/42 15/13/42 79/13/42 
f 80/14/43 78/11/43 13/11/43 
f 13/11/43 16/14/43 80/14/43 
f 63/6/12 66/4/12 81/4/12 
f 81/4/12 82/6/12 63/6/12 
f 70/15/44 63/6/44 82/6/44 
f 82/6/44 83/15/44 70/15/44 
f 66/4/45 72/16/45 84/16/45 
f 84/16/45 81/4/45 66/4/45 
f 72/16/46 70/15/46 83/15/46 
f 83/15/46 84/16/46 72/16/46 
f 83/15/47 82/6/47 85/6/47 
f 85/6/47 86/15/47 83/15/47 
f 82/6/12 81/4/12 87/4/12 
f 87/4/12 85/6/12 82/6/12 
f 81/4/48 84/16/48 88/16/48 
f 88/16/48 87/4/48 81/4/48 
f 84/16/49 83/15/49 86/15/49 
f 86/15/49 88/16/49 84/16/49 
f 86/15/50 85/6/50 68/6/50 
f 68/6/50 67/15/50 86/15/50 
f 85/6/10 87/4/10 69/4/10 
f 69/4/10 68/6/10 85/6/10 
f 87/4/51 88/16/51 71/16/51 
f 71/16/51 69/4/51 87/4/51 
f 88/16/52 86/15/52 67/15/52 
f 67/15/52 71/16/52 88/16/52 
# 172 faces

