# 3ds Max Wavefront OBJ Exporter v0.97b - (c)2007 guruware
# File Created: 05.06.2024 11:29:08

#
# object Hero
#

v  0.6769 3.2344 -0.3876
v  -0.6776 3.2344 -0.3704
v  -0.6803 3.6275 -0.3498
v  0.6742 3.6275 -0.3671
v  0.6883 3.2587 0.5084
v  0.6856 3.6518 0.5290
v  -0.6689 3.6518 0.5462
v  -0.6663 3.2587 0.5257
v  0.8671 6.2245 -0.5628
v  -0.7026 6.2245 -0.5428
v  -0.6777 6.3042 0.8832
v  0.7453 6.3042 0.8651
v  0.0809 0.0199 -0.3428
v  0.6773 0.0199 -0.3504
v  0.6887 0.0443 0.5457
v  0.1295 0.0443 0.5528
v  -0.6796 4.0885 -0.2986
v  0.6749 4.0885 -0.3159
v  0.6863 4.1128 0.5802
v  -0.6682 4.1128 0.5974
v  -0.6677 4.7030 -0.3301
v  -0.1694 4.7030 -0.3364
v  0.3101 4.7030 -0.3425
v  -3.0452 4.0885 -0.2686
v  -3.0341 4.1128 0.6051
v  -3.0342 4.7274 0.5962
v  -3.0456 4.7030 -0.2999
v  0.6982 4.7274 0.5488
v  0.2787 4.7274 0.5541
v  -0.1560 4.7274 0.5596
v  3.3444 4.1128 0.5465
v  3.3330 4.0885 -0.3496
v  3.3326 4.7030 -0.3809
v  3.3440 4.7274 0.5152
v  0.6868 4.7030 -0.3473
v  1.1692 4.7274 0.5428
v  1.1578 4.7030 -0.3533
v  1.1582 4.0885 -0.3220
v  1.1696 4.1128 0.5741
v  2.1248 4.0885 -0.3343
v  2.1361 4.1128 0.5618
v  2.1244 4.7030 -0.3656
v  2.1358 4.7274 0.5305
v  -0.6563 4.7274 0.5660
v  -1.1124 4.7030 -0.3245
v  -1.1011 4.7274 0.5716
v  -1.1007 4.1128 0.6029
v  -1.1120 4.0885 -0.2932
v  -1.9782 4.1128 0.6141
v  -1.9896 4.0885 -0.2820
v  -1.9786 4.7274 0.5828
v  -1.9900 4.7030 -0.3133
v  -0.1697 4.8303 -0.3549
v  0.3099 4.8303 -0.3610
v  -0.1562 4.8546 0.5411
v  0.2785 4.8546 0.5356
v  -0.7028 5.0178 -0.5547
v  0.8670 5.0178 -0.5746
v  -0.6779 5.0974 0.8713
v  0.7451 5.0974 0.8532
v  0.6766 2.5661 -0.4057
v  0.0802 2.5661 -0.3981
v  -0.6665 2.5904 0.5076
v  0.1288 2.5904 0.4975
v  0.6880 2.5904 0.4904
v  -0.6779 2.5661 -0.3885
v  -0.1188 0.0397 0.5475
v  -0.6659 0.0397 0.5545
v  -0.6773 0.0153 -0.3416
v  -0.1194 2.5904 0.5006
v  -0.1610 0.0153 -0.3481
v  -0.1616 2.5661 -0.3950
v  0.6761 2.0924 -0.4464
v  0.0797 2.0924 -0.4388
v  0.6875 2.1168 0.4496
v  0.1283 2.1168 0.4567
v  0.6773 1.2742 -0.3562
v  0.0808 1.2742 -0.3486
v  0.6886 1.2985 0.5398
v  0.1295 1.2985 0.5469
v  -0.6783 2.0578 -0.4242
v  -0.6669 2.0821 0.4719
v  -0.1198 2.0821 0.4650
v  -0.1620 2.0578 -0.4307
v  -0.6661 1.3169 0.5352
v  -0.1190 1.3169 0.5282
v  -0.6775 1.2926 -0.3609
v  -0.1612 1.2926 -0.3675
# 88 vertices

vn -0.0128 0.0573 -1.0082
vn 0.0128 -0.0573 1.0082
vn 0.9999 0.0067 -0.0137
vn -0.0027 0.9856 -0.2094
vn -0.9999 -0.0067 0.0137
vn 0.0018 -0.9896 0.1440
vn -0.0128 0.0824 -1.0093
vn 0.0128 -0.0824 1.0093
vn 0.9999 -0.0000 -0.0127
vn -0.9999 -0.0000 0.0127
vn -0.0128 0.0132 -1.0046
vn -0.9999 0.0000 0.0127
vn 0.0128 -0.0132 1.0046
vn -0.0018 0.9896 -0.1440
vn 0.0012 -0.9896 0.1440
vn 0.0018 -0.9895 0.1456
vn 0.0027 -0.0288 1.0062
vn -0.0127 -0.0271 -0.9996
vn -0.9998 0.0001 0.0175
vn 0.0127 0.0271 0.9996
vn 0.9962 0.0027 0.0872
vn -0.0111 -0.3934 -0.8742
vn -0.4360 -0.8897 0.1371
vn -0.3760 -0.9120 0.2023
vn 0.0116 -0.5239 0.9128
vn 0.3602 -0.9223 0.1657
vn 0.4406 -0.8738 0.2705
vn -0.0128 0.0392 -1.0070
vn -0.9997 -0.0004 0.0228
vn 0.0128 -0.0392 1.0070
vn 0.9817 -0.0079 0.1917
vn -0.0128 0.0465 -1.0075
vn 0.0128 -0.0465 1.0075
vn 0.9999 0.0000 -0.0127
vn -0.0128 0.0717 -1.0089
vn 0.0128 -0.0717 1.0089
vn -0.9950 -0.0063 0.1010
vn -0.0127 -0.0121 -1.0016
vn 0.0127 0.0121 1.0016
vn -0.9950 0.0011 0.0999
vn -0.0128 0.0330 -1.0065
vn 0.0128 -0.0330 1.0065
vn -0.9950 -0.0029 0.1005
vn 0.0128 -0.0650 1.0086
vn -0.0128 0.0650 -1.0086
vn 0.9964 0.0047 -0.0858
vn 0.0127 0.0004 1.0031
vn -0.0127 -0.0004 -1.0031
vn 0.9964 -0.0000 -0.0851
vn 0.0128 -0.0285 1.0061
vn -0.0128 0.0285 -1.0061
vn 0.9964 0.0021 -0.0854
# 52 vertex normals

vt 0.9266 0.1729 0.0000
vt 0.9266 0.8947 0.0000
vt 0.5119 0.8947 0.0000
vt 0.5119 0.1729 0.0000
vt 0.5125 0.1161 0.0000
vt 0.9266 0.1161 0.0000
vt 0.9266 0.8412 0.0000
vt 0.5125 0.8412 0.0000
vt 0.1396 0.0457 0.0000
vt 0.2121 0.0457 0.0000
vt 0.2162 0.2725 0.0000
vt 0.1496 0.2725 0.0000
vt 0.2292 0.0457 0.0000
vt 0.3694 0.0457 0.0000
vt 0.3694 0.2725 0.0000
vt 0.2380 0.2725 0.0000
vt 0.0510 0.0457 0.0000
vt 0.4019 0.1670 0.0000
vt 0.0835 0.1670 0.0000
vt 0.0510 0.2725 0.0000
vt 0.4210 0.4215 0.0000
vt 0.2637 0.4215 0.0000
vt 0.1721 0.1670 0.0000
vt 0.2352 0.5270 0.0000
vt 0.3885 0.5270 0.0000
vt 0.2808 0.0897 0.0000
vt 0.2896 0.3166 0.0000
vt 0.1264 0.3626 0.0000
vt 0.0791 0.4781 0.0000
vt 0.0791 0.2512 0.0000
vt 0.2312 0.3166 0.0000
vt 0.1191 0.1357 0.0000
vt 0.2240 0.0897 0.0000
vt 0.1015 0.1660 0.0000
vt 0.1796 0.2725 0.0000
vt 0.2228 0.1660 0.0000
vt 0.2136 0.5202 0.0000
vt 0.2609 0.4047 0.0000
vt 0.2641 0.4137 0.0000
vt 0.3041 0.2982 0.0000
# 40 texture coords

o Hero
g Hero
f 1/1/1 2/2/1 3/3/1 
f 3/3/1 4/4/1 1/1/1 
f 5/4/2 6/1/2 7/2/2 
f 7/2/2 8/3/2 5/4/2 
f 1/5/3 4/6/3 6/7/3 
f 6/7/3 5/8/3 1/5/3 
f 9/9/4 10/10/4 11/11/4 
f 11/11/4 12/12/4 9/9/4 
f 3/5/5 2/6/5 8/7/5 
f 8/7/5 7/8/5 3/5/5 
f 13/13/6 14/14/6 15/15/6 
f 15/15/6 16/16/6 13/13/6 
f 4/17/7 3/14/7 17/18/7 
f 17/18/7 18/19/7 4/17/7 
f 7/15/8 6/20/8 19/20/8 
f 19/20/8 20/15/8 7/15/8 
f 6/20/9 4/17/9 18/19/9 
f 18/19/9 19/20/9 6/20/9 
f 3/14/10 7/15/10 20/15/10 
f 20/15/10 17/18/10 3/14/10 
f 18/19/11 17/18/11 21/21/11 
f 22/22/11 23/23/11 18/19/11 
f 24/14/10 25/15/10 26/15/10 
f 26/15/12 27/14/12 24/14/12 
f 20/15/13 19/20/13 28/20/13 
f 29/12/13 30/24/13 20/15/13 
f 31/20/9 32/17/9 33/17/9 
f 33/17/9 34/20/9 31/20/9 
f 35/17/14 28/20/14 36/20/14 
f 36/20/14 37/17/14 35/17/14 
f 19/20/6 18/19/6 38/17/6 
f 38/17/6 39/20/6 19/20/6 
f 18/19/11 35/17/11 37/17/11 
f 37/17/11 38/17/11 18/19/11 
f 28/20/13 19/20/13 39/20/13 
f 39/20/13 36/20/13 28/20/13 
f 39/20/6 38/17/6 40/17/6 
f 40/17/6 41/20/6 39/20/6 
f 38/17/11 37/17/11 42/17/11 
f 42/17/11 40/17/11 38/17/11 
f 37/17/14 36/20/14 43/20/14 
f 43/20/14 42/17/14 37/17/14 
f 36/20/13 39/20/13 41/20/13 
f 41/20/13 43/20/13 36/20/13 
f 41/20/6 40/17/6 32/17/6 
f 32/17/6 31/20/6 41/20/6 
f 40/17/11 42/17/11 33/17/11 
f 33/17/11 32/17/11 40/17/11 
f 42/17/14 43/20/14 34/20/14 
f 34/20/14 33/17/14 42/17/14 
f 43/20/13 41/20/13 31/20/13 
f 31/20/13 34/20/13 43/20/13 
f 44/25/14 21/21/14 45/14/14 
f 45/14/14 46/15/14 44/25/14 
f 17/18/6 20/15/6 47/15/6 
f 47/15/6 48/14/6 17/18/6 
f 21/21/11 17/18/11 48/14/11 
f 48/14/11 45/14/11 21/21/11 
f 20/15/13 44/25/13 46/15/13 
f 46/15/13 47/15/13 20/15/13 
f 48/14/6 47/15/6 49/15/6 
f 49/15/6 50/14/6 48/14/6 
f 47/15/13 46/15/13 51/15/13 
f 51/15/13 49/15/13 47/15/13 
f 46/15/14 45/14/14 52/14/14 
f 52/14/14 51/15/14 46/15/14 
f 45/14/11 48/14/11 50/14/11 
f 50/14/11 52/14/11 45/14/11 
f 50/14/15 49/15/15 25/15/15 
f 25/15/16 24/14/16 50/14/16 
f 49/15/13 51/15/13 26/15/13 
f 26/15/17 25/15/17 49/15/17 
f 51/15/14 52/14/14 27/14/14 
f 27/14/14 26/15/14 51/15/14 
f 52/14/11 50/14/11 24/14/11 
f 24/14/11 27/14/11 52/14/11 
f 22/22/14 21/21/14 44/25/14 
f 21/21/11 22/22/11 18/19/11 
f 44/25/14 30/24/14 22/22/14 
f 30/24/13 44/25/13 20/15/13 
f 29/12/14 28/20/14 35/17/14 
f 28/20/13 29/12/13 20/15/13 
f 35/17/14 23/23/14 29/12/14 
f 23/23/11 35/17/11 18/19/11 
f 23/23/18 22/22/18 53/10/18 
f 53/10/18 54/9/18 23/23/18 
f 22/22/19 30/24/19 55/11/19 
f 55/11/19 53/10/19 22/22/19 
f 30/24/20 29/12/20 56/12/20 
f 56/12/20 55/11/20 30/24/20 
f 29/12/21 23/23/21 54/9/21 
f 54/9/21 56/12/21 29/12/21 
f 54/9/22 53/10/22 57/10/22 
f 57/10/22 58/9/22 54/9/22 
f 53/10/23 55/11/23 59/11/23 
f 59/11/24 57/10/24 53/10/24 
f 55/11/25 56/12/25 60/12/25 
f 60/12/25 59/11/25 55/11/25 
f 56/12/26 54/9/26 58/9/26 
f 58/9/27 60/12/27 56/12/27 
f 58/9/28 57/10/28 10/10/28 
f 10/10/28 9/9/28 58/9/28 
f 57/10/29 59/11/29 11/11/29 
f 11/11/29 10/10/29 57/10/29 
f 59/11/30 60/12/30 12/12/30 
f 12/12/30 11/11/30 59/11/30 
f 60/12/31 58/9/31 9/9/31 
f 9/9/31 12/12/31 60/12/31 
f 2/17/32 1/14/32 61/14/32 
f 61/14/32 62/26/32 2/17/32 
f 5/15/33 8/20/33 63/20/33 
f 64/27/33 65/15/33 5/15/33 
f 1/14/34 5/15/34 65/15/34 
f 65/15/34 61/14/34 1/14/34 
f 8/20/10 2/17/10 66/17/10 
f 66/17/10 63/20/10 8/20/10 
f 67/28/6 68/29/6 69/30/6 
f 63/20/33 70/31/33 5/15/33 
f 69/30/6 71/32/6 67/28/6 
f 72/33/32 66/17/32 2/17/32 
f 64/27/6 70/31/6 72/33/6 
f 70/31/33 64/27/33 5/15/33 
f 72/33/6 62/26/6 64/27/6 
f 62/26/32 72/33/32 2/17/32 
f 62/26/35 61/14/35 73/14/35 
f 73/14/35 74/13/35 62/26/35 
f 61/14/34 65/15/34 75/15/34 
f 75/15/34 73/14/34 61/14/34 
f 65/15/36 64/27/36 76/16/36 
f 76/16/36 75/15/36 65/15/36 
f 64/27/37 62/26/37 74/13/37 
f 74/13/37 76/16/37 64/27/37 
f 74/13/38 73/14/38 77/14/38 
f 77/14/38 78/13/38 74/13/38 
f 73/14/34 75/15/34 79/15/34 
f 79/15/34 77/14/34 73/14/34 
f 75/15/39 76/16/39 80/16/39 
f 80/16/39 79/15/39 75/15/39 
f 76/16/40 74/13/40 78/13/40 
f 78/13/40 80/16/40 76/16/40 
f 78/13/41 77/14/41 14/14/41 
f 14/14/41 13/13/41 78/13/41 
f 77/14/9 79/15/9 15/15/9 
f 15/15/9 14/14/9 77/14/9 
f 79/15/42 80/16/42 16/16/42 
f 16/16/42 15/15/42 79/15/42 
f 80/16/43 78/13/43 13/13/43 
f 13/13/43 16/16/43 80/16/43 
f 63/20/12 66/17/12 81/34/12 
f 81/34/12 82/20/12 63/20/12 
f 70/31/44 63/20/44 82/20/44 
f 82/20/44 83/35/44 70/31/44 
f 66/17/45 72/33/45 84/36/45 
f 84/36/45 81/34/45 66/17/45 
f 72/33/46 70/31/46 83/35/46 
f 83/35/46 84/36/46 72/33/46 
f 83/35/47 82/20/47 85/37/47 
f 85/37/47 86/38/47 83/35/47 
f 82/20/12 81/34/12 87/39/12 
f 87/39/12 85/37/12 82/20/12 
f 81/34/48 84/36/48 88/40/48 
f 88/40/48 87/39/48 81/34/48 
f 84/36/49 83/35/49 86/38/49 
f 86/38/49 88/40/49 84/36/49 
f 86/38/50 85/37/50 68/29/50 
f 68/29/50 67/28/50 86/38/50 
f 85/37/10 87/39/10 69/30/10 
f 69/30/10 68/29/10 85/37/10 
f 87/39/51 88/40/51 71/32/51 
f 71/32/51 69/30/51 87/39/51 
f 88/40/52 86/38/52 67/28/52 
f 67/28/52 71/32/52 88/40/52 
# 172 faces

